<svg width="33" height="30" viewBox="0 0 33 30" fill="none" xmlns="http://www.w3.org/2000/svg">
<path fill-rule="evenodd" clip-rule="evenodd" d="M1.17857 5.5102H31.8214C32.4724 5.5102 33 4.96202 33 4.28571V1.22449C33 0.548189 32.4724 0 31.8214 0H1.17857C0.527632 0 0 0.548189 0 1.22449V4.28571C0 4.96202 0.527632 5.5102 1.17857 5.5102ZM1.17857 17.7551H31.8214C32.4724 17.7551 33 17.2069 33 16.5306V13.4694C33 12.7931 32.4724 12.2449 31.8214 12.2449H1.17857C0.527632 12.2449 0 12.7931 0 13.4694V16.5306C0 17.2069 0.527632 17.7551 1.17857 17.7551ZM31.8214 30H1.17857C0.527632 30 0 29.4518 0 28.7755V25.7143C0 25.038 0.527632 24.4898 1.17857 24.4898H31.8214C32.4724 24.4898 33 25.038 33 25.7143V28.7755C33 29.4518 32.4724 30 31.8214 30Z" fill="black"/>
</svg>
